<svg width="122" height="25" viewBox="0 0 122 25" fill="none" xmlns="http://www.w3.org/2000/svg">
<path d="M5.02134 18.0726H4.92928V18.3636C4.8679 19.2657 4.68378 19.2657 3.97798 19.2657H2.35156C1.40025 19.2657 0.725136 19.2948 0.725136 18.5964C0.725136 17.6652 2.16743 17.6943 2.16743 16.734V4.33742C2.16743 3.75542 2.014 3.43532 1.61507 3.14432C0.909262 2.64962 0.541016 2.62053 0.541016 2.15493C0.541016 1.45653 2.81186 0.787231 4.03935 0.787231C4.89859 0.787231 5.14409 1.19463 5.14409 1.98033V8.0622C6.09539 7.16011 7.56838 6.51991 9.13342 6.51991C12.6011 6.51991 15.3936 8.9061 15.3936 12.9219C15.3936 16.7631 12.8466 19.6149 9.10273 19.6149C7.23081 19.6149 5.94195 18.9165 5.02134 18.0726ZM8.85723 18.3345C10.8212 18.3345 12.018 16.7922 12.0794 14.1441C12.1101 10.8558 10.4837 8.004 8.21281 7.97491C6.77051 7.94581 5.17477 9.0807 5.17477 11.2923V14.0859C5.17477 16.1229 6.77051 18.3345 8.85723 18.3345Z" fill="#005458"/>
<path d="M16.8052 18.5964C16.8052 17.8689 18.2475 17.8689 18.2475 16.8795V9.95376C18.2782 9.54636 18.0941 9.28446 17.8486 9.13896C17.0507 8.73156 16.6211 8.55696 16.6211 8.09136C16.6211 7.50937 18.9533 6.57817 19.966 6.57817C20.8866 6.57817 21.0707 6.95647 21.0707 7.77127V8.90616H21.1628C21.93 7.33477 23.2188 6.54907 24.3236 6.54907C25.5511 6.54907 26.1341 7.21837 26.1341 8.06226C26.1341 9.19716 25.3669 9.72096 24.4156 9.72096C23.8326 9.72096 23.6178 9.54636 22.9427 9.54636C22.0834 9.54636 21.2549 9.98286 21.2549 12.2235V16.8795C21.2549 17.8689 22.6971 17.898 22.6971 18.5964C22.6971 19.062 22.2982 19.2366 21.5004 19.2366H18.002C17.2042 19.2366 16.8052 19.062 16.8052 18.5964Z" fill="#005458"/>
<path d="M30.492 6.54896C31.566 6.54896 31.8115 6.95635 31.8115 7.77115V16.8794C31.8115 17.8688 33.2538 17.8979 33.2538 18.5963C33.2538 19.0619 32.8549 19.2365 32.057 19.2365H28.5587C27.7915 19.2365 27.3619 19.0619 27.3619 18.5963C27.3619 17.8688 28.8042 17.8688 28.8042 16.8794V10.0991C28.8042 9.51714 28.6507 9.19704 28.2518 8.90605C27.546 8.41135 27.1777 8.38225 27.1777 7.91665C27.2084 7.21825 29.51 6.54896 30.492 6.54896ZM28.1904 3.34797C28.1904 2.27127 29.1417 1.57288 30.2158 1.57288C31.2898 1.57288 32.1797 2.27127 32.1797 3.34797C32.1797 4.42466 31.2591 5.12306 30.2158 5.12306C29.1417 5.12306 28.1904 4.42466 28.1904 3.34797Z" fill="#005458"/>
<path d="M44.6382 7.82948C45.5895 8.58607 46.1112 9.63367 46.1112 10.7977C46.1112 13.4167 43.9631 15.1044 40.3727 15.1044C39.36 15.1044 38.4087 14.9298 37.5802 14.6097C37.2119 14.8716 36.9971 15.2499 36.9971 15.8028C36.9971 16.5303 37.4267 17.0541 38.7156 17.0541C40.6796 17.0541 41.5081 16.9377 42.3674 16.9377C45.3747 16.9377 46.9704 18.0144 46.9704 20.0805C46.9704 22.4376 44.8223 24.2127 40.5875 24.2127C38.869 24.2127 37.1505 23.8635 36.0458 23.3979C35.1559 23.0196 34.6035 22.4958 34.6035 21.7974C34.6035 21.1572 35.0945 20.6334 35.8003 20.6334C36.5061 20.6334 36.9051 21.0117 37.3654 21.4773C37.9791 22.0593 38.8077 23.0196 40.6796 23.0196C43.1959 23.0196 44.1779 21.9429 44.1779 20.9826C44.1779 19.9059 43.4107 19.4694 41.7229 19.4694C40.8944 19.4694 39.6055 19.5567 38.8077 19.5567C36.5061 19.5567 34.6342 18.8001 34.6342 16.5885C34.6342 15.5409 35.4014 14.5807 36.4141 14.0278C35.3093 13.3003 34.6342 12.1654 34.6342 10.7686C34.6342 8.41147 36.9971 6.54908 40.342 6.54908C41.7229 6.54908 42.8891 6.81098 43.8097 7.30568C44.4234 6.89828 44.362 6.25808 44.5155 5.41419C44.6689 4.36659 45.252 3.75549 46.2953 3.75549C47.1853 3.75549 48.1059 4.39569 48.1059 5.41419C48.1059 7.21838 45.7736 7.18928 44.6382 7.82948ZM40.6182 13.9114C42.2753 13.9114 43.0732 12.7183 43.0732 11.2924C43.0732 9.28447 41.8764 7.74218 40.1272 7.74218C38.5008 7.74218 37.7643 8.90617 37.7643 10.303C37.7336 12.2527 38.9304 13.9114 40.6182 13.9114Z" fill="#005458"/>
<path d="M48.4132 18.5966C48.4132 17.8691 49.8555 17.8691 49.8555 16.8797V4.19212C49.8862 3.78472 49.7021 3.52282 49.4873 3.37732C48.6587 2.96992 48.2598 2.79532 48.2598 2.32972C48.2598 1.74773 50.8068 0.816528 51.6047 0.816528C52.4946 0.816528 52.7094 1.19483 52.7094 2.00963V8.9063H52.8015C53.6914 7.5677 55.103 6.57831 57.0977 6.57831C61.0256 6.57831 61.578 9.25549 61.578 13.0094V16.9379C61.578 17.9273 63.0203 17.9564 63.0203 18.6548C63.0203 19.1204 62.5907 19.295 61.8235 19.295H58.3252C57.5273 19.295 57.1284 19.1204 57.1284 18.6548C57.1284 17.9273 58.5707 17.9273 58.5707 16.9379V13.1258C58.5707 10.1576 57.6807 8.7026 55.9009 8.7026C53.8755 8.7026 52.8322 10.3322 52.8322 12.4565L52.8015 16.9379C52.8015 17.9273 54.2438 17.9564 54.2438 18.6548C54.2438 19.1204 53.8141 19.295 53.047 19.295H49.61C48.8121 19.2368 48.4132 19.0622 48.4132 18.5966Z" fill="#005458"/>
<path d="M88.8894 6.54908C89.9635 6.54908 90.2089 6.95647 90.2089 7.77127V16.8795C90.2089 17.8689 91.6512 17.898 91.6512 18.5964C91.6512 19.062 91.2523 19.2366 90.4544 19.2366H86.9561C86.1889 19.2366 85.7593 19.062 85.7593 18.5964C85.7593 17.8689 87.2016 17.8689 87.2016 16.8795V10.0993C87.2016 9.51726 87.0482 9.19717 86.6492 8.90617C85.9434 8.41147 85.5752 8.38237 85.5752 7.91677C85.6059 7.21837 87.9074 6.54908 88.8894 6.54908ZM86.5879 3.34809C86.5879 2.27139 87.5392 1.573 88.6132 1.573C89.6873 1.573 90.5772 2.27139 90.5772 3.34809C90.5772 4.42479 89.6566 5.12318 88.6132 5.12318C87.5392 5.12318 86.5879 4.42479 86.5879 3.34809Z" fill="#005458"/>
<path d="M93.4005 18.5964C93.4005 17.8689 94.8428 17.8689 94.8428 16.8795V9.95376C94.8735 9.54636 94.7201 9.25536 94.4746 9.13896C93.6767 8.70246 93.2471 8.55696 93.2471 8.09136C93.2471 7.50937 95.5793 6.57817 96.592 6.57817C97.4819 6.57817 97.6967 6.95647 97.6967 7.77127V8.90616H97.7888C98.5866 7.53847 99.9369 6.54907 102.024 6.54907C105.031 6.54907 106.565 8.20776 106.565 11.4088V16.8795C106.565 17.8689 108.008 17.898 108.008 18.5964C108.008 19.062 107.609 19.2366 106.811 19.2366H103.312C102.545 19.2366 102.116 19.062 102.116 18.5964C102.116 17.8689 103.558 17.8689 103.558 16.8795V11.9035C103.558 9.72096 102.729 8.64426 100.95 8.64426C98.9242 8.64426 97.7888 10.303 97.7888 12.3981V16.8795C97.7888 17.8689 99.2311 17.898 99.2311 18.5964C99.2311 19.062 98.8321 19.2366 98.0343 19.2366H94.5359C93.8301 19.2366 93.4005 19.062 93.4005 18.5964Z" fill="#005458"/>
<path d="M121.172 16.1521C121.172 16.3558 121.111 16.5595 120.988 16.7923C120.251 18.3637 118.379 19.615 116.017 19.615C111.874 19.615 109.143 17.0251 109.143 13.213C109.143 9.37184 111.904 6.57825 115.771 6.57825C119.269 6.57825 121.172 8.64434 121.172 11.4088C121.172 12.4564 120.681 12.922 119.515 12.922H112.273C112.518 15.541 114.267 17.3452 116.814 17.3452C118.134 17.3452 118.993 16.8505 119.944 15.9484C120.19 15.7156 120.374 15.5992 120.65 15.5992C120.957 15.5992 121.172 15.8029 121.172 16.1521ZM118.011 11.758C118.073 11.6125 118.103 11.2342 118.103 11.0305C118.103 9.05174 117.305 7.80044 115.433 7.80044C113.715 7.80044 112.426 9.34274 112.273 11.758H118.011Z" fill="#005458"/>
<path d="M72.1954 9.77913C73.1467 12.1071 74.5276 15.7446 75.2027 17.3451C75.8779 18.9165 76.6757 19.644 78.2101 19.644C79.7751 19.644 80.2968 18.9456 81.3402 17.1123C82.629 14.7552 84.4703 9.72093 84.4703 8.35324C84.4703 7.13104 83.7951 6.57814 82.7825 6.57814C81.6777 6.57814 80.9412 7.18924 80.9412 8.12044C80.9412 9.28443 81.8925 9.57543 81.8925 11.1759C81.8925 12.4563 81.0947 14.5806 80.1741 16.2975C79.7444 17.1123 79.3762 17.4615 79.0079 17.4615C78.609 17.4615 78.3942 17.2287 78.0566 16.5012C77.1667 14.5806 75.7551 10.4484 75.571 9.25533C75.4789 8.44053 76.9826 8.67333 76.9826 7.71304C76.9826 7.21834 76.7678 6.95644 75.9085 6.95644H68.0219V3.78455C68.0219 2.94066 67.9299 2.64966 67.3468 2.64966C65.5363 2.64966 66.3035 6.89824 64.094 6.89824H63.8792C63.3882 6.89824 62.9893 7.07284 62.9893 7.59664C62.9893 8.09134 63.3268 8.29504 63.8178 8.29504H64.9225V14.5806C64.9225 17.0541 65.3215 19.6149 69.0653 19.6149C70.8759 19.6149 72.5636 18.8001 72.5636 17.5197C72.5636 16.9086 72.1033 16.5594 71.5203 16.5594C70.2314 16.5594 70.569 18.2181 69.3722 18.2181C67.9606 18.2181 68.0833 16.9959 68.0833 15.2208V8.32414L69.7097 8.38233C71.1214 8.38233 71.8272 8.78973 72.1954 9.77913Z" fill="#005458"/>
</svg>
