<svg width="30" height="31" viewBox="0 0 30 31" fill="none" xmlns="http://www.w3.org/2000/svg">
<path d="M0.879042 29.1898C1.89172 26.5999 2.25996 24.883 2.25996 21.5074V7.74316C2.25996 5.47337 1.70759 3.40728 0.909729 1.69038C0.694919 1.13749 1.12454 0.555488 2.13721 0.555488C15.9464 0.555488 8.67358 20.8672 12.5402 30.0628C12.6015 30.2374 12.6936 30.3829 12.755 30.5284H1.86103C1.15523 30.4993 0.664232 29.83 0.879042 29.1898ZM14.9951 15.0763C20.2426 11.4097 27.6689 14.5816 27.6689 7.10296C27.6689 -1.3651 16.7136 0.788287 11.0365 0.555488C14.5962 3.81467 15.1793 9.95475 14.9951 15.0763ZM16.8977 30.5284H19.322C25.7663 30.5284 29.5408 27.6475 29.5408 23.0788C29.5408 18.6847 26.5949 16.153 22.2373 16.153C15.3634 16.1239 12.5708 22.6714 16.8977 30.5284Z" fill="#005458"/>
</svg>
